<?xml version="1.0" encoding="UTF-8" standalone="no"?>
<!-- Created with Inkscape (http://www.inkscape.org/) -->

<svg
   width="549.05383mm"
   height="61.793579mm"
   viewBox="0 0 549.05383 61.793579"
   version="1.1"
   id="svg833"
   xml:space="preserve"
   xmlns="http://www.w3.org/2000/svg"
   xmlns:svg="http://www.w3.org/2000/svg"><defs
     id="defs830"><filter
       id="filter0_f_6001_463"
       x="2.49348"
       y="-26.542299"
       width="69.089897"
       height="61.252499"
       filterUnits="userSpaceOnUse"
       color-interpolation-filters="sRGB"><feFlood
         flood-opacity="0"
         result="BackgroundImageFix"
         id="feFlood924" /><feBlend
         mode="normal"
         in="SourceGraphic"
         in2="BackgroundImageFix"
         result="shape"
         id="feBlend926" /><feGaussianBlur
         stdDeviation="3.89034"
         result="effect1_foregroundBlur_6001_463"
         id="feGaussianBlur928" /></filter><filter
       id="filter1_f_6001_463"
       x="28.752399"
       y="-32.033298"
       width="135.47701"
       height="134.313"
       filterUnits="userSpaceOnUse"
       color-interpolation-filters="sRGB"><feFlood
         flood-opacity="0"
         result="BackgroundImageFix"
         id="feFlood931" /><feBlend
         mode="normal"
         in="SourceGraphic"
         in2="BackgroundImageFix"
         result="shape"
         id="feBlend933" /><feGaussianBlur
         stdDeviation="18.8078"
         result="effect1_foregroundBlur_6001_463"
         id="feGaussianBlur935" /></filter><filter
       id="filter2_f_6001_463"
       x="-62.288399"
       y="-21.925301"
       width="142.63699"
       height="127.18"
       filterUnits="userSpaceOnUse"
       color-interpolation-filters="sRGB"><feFlood
         flood-opacity="0"
         result="BackgroundImageFix"
         id="feFlood938" /><feBlend
         mode="normal"
         in="SourceGraphic"
         in2="BackgroundImageFix"
         result="shape"
         id="feBlend940" /><feGaussianBlur
         stdDeviation="15.9884"
         result="effect1_foregroundBlur_6001_463"
         id="feGaussianBlur942" /></filter><filter
       id="filter3_f_6001_463"
       x="-62.288399"
       y="-21.925301"
       width="142.63699"
       height="127.18"
       filterUnits="userSpaceOnUse"
       color-interpolation-filters="sRGB"><feFlood
         flood-opacity="0"
         result="BackgroundImageFix"
         id="feFlood945" /><feBlend
         mode="normal"
         in="SourceGraphic"
         in2="BackgroundImageFix"
         result="shape"
         id="feBlend947" /><feGaussianBlur
         stdDeviation="15.9884"
         result="effect1_foregroundBlur_6001_463"
         id="feGaussianBlur949" /></filter><filter
       id="filter4_f_6001_463"
       x="-52.569698"
       y="-20.8346"
       width="127.582"
       height="127.452"
       filterUnits="userSpaceOnUse"
       color-interpolation-filters="sRGB"><feFlood
         flood-opacity="0"
         result="BackgroundImageFix"
         id="feFlood952" /><feBlend
         mode="normal"
         in="SourceGraphic"
         in2="BackgroundImageFix"
         result="shape"
         id="feBlend954" /><feGaussianBlur
         stdDeviation="15.9884"
         result="effect1_foregroundBlur_6001_463"
         id="feGaussianBlur956" /></filter><filter
       id="filter5_f_6001_463"
       x="17.3619"
       y="45.4646"
       width="116.786"
       height="118.715"
       filterUnits="userSpaceOnUse"
       color-interpolation-filters="sRGB"><feFlood
         flood-opacity="0"
         result="BackgroundImageFix"
         id="feFlood959" /><feBlend
         mode="normal"
         in="SourceGraphic"
         in2="BackgroundImageFix"
         result="shape"
         id="feBlend961" /><feGaussianBlur
         stdDeviation="15.1937"
         result="effect1_foregroundBlur_6001_463"
         id="feGaussianBlur963" /></filter><filter
       id="filter6_f_6001_463"
       x="-7.44765"
       y="-60.473701"
       width="125.303"
       height="122.858"
       filterUnits="userSpaceOnUse"
       color-interpolation-filters="sRGB"><feFlood
         flood-opacity="0"
         result="BackgroundImageFix"
         id="feFlood966" /><feBlend
         mode="normal"
         in="SourceGraphic"
         in2="BackgroundImageFix"
         result="shape"
         id="feBlend968" /><feGaussianBlur
         stdDeviation="13.7698"
         result="effect1_foregroundBlur_6001_463"
         id="feGaussianBlur970" /></filter><filter
       id="filter7_f_6001_463"
       x="-27.708599"
       y="13.3597"
       width="157.119"
       height="162.02901"
       filterUnits="userSpaceOnUse"
       color-interpolation-filters="sRGB"><feFlood
         flood-opacity="0"
         result="BackgroundImageFix"
         id="feFlood973" /><feBlend
         mode="normal"
         in="SourceGraphic"
         in2="BackgroundImageFix"
         result="shape"
         id="feBlend975" /><feGaussianBlur
         stdDeviation="12.297"
         result="effect1_foregroundBlur_6001_463"
         id="feGaussianBlur977" /></filter><filter
       id="filter8_f_6001_463"
       x="50.463799"
       y="16.981001"
       width="87.397301"
       height="83.773804"
       filterUnits="userSpaceOnUse"
       color-interpolation-filters="sRGB"><feFlood
         flood-opacity="0"
         result="BackgroundImageFix"
         id="feFlood980" /><feBlend
         mode="normal"
         in="SourceGraphic"
         in2="BackgroundImageFix"
         result="shape"
         id="feBlend982" /><feGaussianBlur
         stdDeviation="11.0036"
         result="effect1_foregroundBlur_6001_463"
         id="feGaussianBlur984" /></filter><filter
       id="filter9_f_6001_463"
       x="34.260399"
       y="-28.457001"
       width="116.701"
       height="104.506"
       filterUnits="userSpaceOnUse"
       color-interpolation-filters="sRGB"><feFlood
         flood-opacity="0"
         result="BackgroundImageFix"
         id="feFlood987" /><feBlend
         mode="normal"
         in="SourceGraphic"
         in2="BackgroundImageFix"
         result="shape"
         id="feBlend989" /><feGaussianBlur
         stdDeviation="9.29385"
         result="effect1_foregroundBlur_6001_463"
         id="feGaussianBlur991" /></filter><filter
       id="filter10_f_6001_463"
       x="-15.1522"
       y="-15.9493"
       width="77.294098"
       height="91.075996"
       filterUnits="userSpaceOnUse"
       color-interpolation-filters="sRGB"><feFlood
         flood-opacity="0"
         result="BackgroundImageFix"
         id="feFlood994" /><feBlend
         mode="normal"
         in="SourceGraphic"
         in2="BackgroundImageFix"
         result="shape"
         id="feBlend996" /><feGaussianBlur
         stdDeviation="11.5027"
         result="effect1_foregroundBlur_6001_463"
         id="feGaussianBlur998" /></filter><clipPath
       clipPathUnits="userSpaceOnUse"
       id="clipPath1200"><path
         d="M 89.699204,93.694987 C 94.365903,97.195016 101.366,94.861698 94.949201,88.44499 75.699203,69.77829 79.782499,18.444981 55.8659,18.444981 c -23.916701,0 -19.833401,51.333309 -39.083399,70.000009 -6.9999897,6.999996 0.583299,8.750026 5.249998,5.249997 18.083403,-12.249992 16.9167,-33.833288 33.833401,-33.833288 16.916603,0 15.749999,21.583296 33.833304,33.833288 z"
         fill="#000000"
         id="path1202"
         style="fill:#ffffff;stroke-width:1" /></clipPath></defs><g
     id="layer1"
     transform="translate(153.99875,-167.7638)"><path
       id="path837"
       mask="none"
       style="stroke-width:0.643315"
       d="M -53.77231 168.44231 C -66.83608 168.44231 -77.811152 179.08658 -77.811152 192.14991 C -77.811152 205.21316 -66.83608 215.85751 -53.77231 215.85751 L -53.77231 215.84459 C -46.719019 215.84459 -41.403279 213.53384 -37.246187 209.19848 C -32.974584 204.92045 -31.643428 198.90435 -31.643428 194.04695 C -31.643428 192.54455 -31.758572 191.15673 -31.987593 189.9981 L -53.938191 189.9981 L -53.938191 196.47264 L -38.283849 196.47264 C -38.74832 200.12043 -39.964457 202.77516 -41.810766 204.6277 C -44.064295 206.88767 -47.590708 209.37056 -53.77231 209.37056 C -63.302357 209.37056 -70.757319 201.68651 -70.757319 192.14371 C -70.757319 182.60086 -63.302357 174.91065 -53.77231 174.91065 C -48.634806 174.91065 -44.879152 176.93505 -42.103254 179.53879 L -37.539192 174.97421 C -41.410011 171.27548 -46.547254 168.44231 -53.77231 168.44231 z M 71.18182 170.05978 L 71.18182 214.92785 L 77.885287 214.92785 L 77.885287 170.05978 L 71.18182 170.05978 z M 218.36353 172.39453 C 217.38763 172.39453 216.54846 172.74591 215.84534 173.44872 C 215.14282 174.11249 214.79166 174.95222 214.79166 175.96743 C 214.79166 176.94354 215.14282 177.78281 215.84534 178.48563 C 216.54846 179.18845 217.38763 179.53983 218.36353 179.53983 C 219.37869 179.53983 220.21834 179.18845 220.88224 178.48563 C 221.58539 177.78281 221.93696 176.94354 221.93696 175.96743 C 221.93696 174.95222 221.58539 174.11249 220.88224 173.44872 C 220.21834 172.74591 219.37869 172.39453 218.36353 172.39453 z M 340.3964 172.39453 C 339.42049 172.39453 338.58134 172.74591 337.8782 173.44872 C 337.1757 174.11249 336.82452 174.95222 336.82452 175.96743 C 336.82452 176.94354 337.1757 177.78281 337.8782 178.48563 C 338.58134 179.18845 339.42049 179.53983 340.3964 179.53983 C 341.41155 179.53983 342.25121 179.18845 342.9151 178.48563 C 343.6176 177.78281 343.96982 176.94354 343.96982 175.96743 C 343.96982 174.95222 343.6176 174.11249 342.9151 173.44872 C 342.25121 172.74591 341.41155 172.39453 340.3964 172.39453 z M 140.16779 172.98054 L 124.23698 214.91544 L 129.68419 214.91544 L 133.95938 203.37713 L 151.99859 203.37713 L 156.2743 214.91544 L 161.721 214.91544 L 145.79019 172.98054 L 140.16779 172.98054 z M 198.84535 176.61132 L 198.84535 185.04543 L 193.57435 185.04543 L 193.57435 189.55523 L 198.84535 189.55523 L 198.84535 207.06734 C 198.84535 209.60534 199.60671 211.63566 201.12944 213.15845 C 202.65217 214.64218 204.66287 215.38363 207.16215 215.38363 C 207.94314 215.38363 208.66504 215.30583 209.32894 215.14954 C 209.99284 215.03239 210.63686 214.85663 211.26216 214.62244 L 211.26216 209.76124 C 210.75458 210.07365 210.22714 210.32783 209.68034 210.52295 C 209.13417 210.67904 208.54799 210.75704 207.92334 210.75704 C 206.55696 210.75704 205.52215 210.36645 204.81966 209.58554 C 204.15576 208.76557 203.82334 207.51637 203.82334 205.83745 L 203.82334 189.55523 L 211.14434 189.55523 L 211.14434 185.04543 L 203.82334 185.04543 L 203.82334 176.61132 L 198.84535 176.61132 z M 352.10938 176.61132 L 352.10938 185.04543 L 346.83786 185.04543 L 346.83786 189.55523 L 352.10938 189.55523 L 352.10938 207.06734 C 352.10938 209.60534 352.87063 211.63566 354.39399 213.15845 C 355.91673 214.64218 357.92691 215.38363 360.42618 215.38363 C 361.20718 215.38363 361.9297 215.30583 362.59297 215.14954 C 363.25687 215.03239 363.90151 214.85663 364.52619 214.62244 L 364.52619 209.76124 C 364.01861 210.07365 363.49106 210.32783 362.94489 210.52295 C 362.39806 210.67904 361.81267 210.75704 361.18737 210.75704 C 359.82096 210.75704 358.78632 210.36645 358.08317 209.58554 C 357.41927 208.76557 357.08737 207.51637 357.08737 205.83745 L 357.08737 189.55523 L 364.40888 189.55523 L 364.40888 185.04543 L 357.08737 185.04543 L 357.08737 176.61132 L 352.10938 176.61132 z M 142.86168 179.07164 L 143.09578 179.07164 L 144.7365 183.58092 L 150.30051 198.69163 L 135.65799 198.69163 L 141.22199 183.58092 L 142.86168 179.07164 z M 179.69664 184.10854 C 177.58852 184.10854 175.63628 184.63564 173.84015 185.68984 C 172.08326 186.7441 170.8136 187.99324 170.03263 189.43793 L 169.79854 189.43793 L 169.79854 185.04543 L 165.05464 185.04543 L 165.05464 214.91544 L 170.03263 214.91544 L 170.03263 198.10613 C 170.03263 196.50526 170.38486 194.98263 171.08735 193.53794 C 171.7905 192.09325 172.76604 190.922 174.01534 190.02394 C 175.26531 189.08683 176.70964 188.61782 178.34944 188.61782 C 180.53608 188.61782 182.31293 189.22334 183.67935 190.43373 C 185.08499 191.60505 185.78826 193.63546 185.78826 196.52484 L 185.78826 214.91544 L 190.76625 214.91544 L 190.76625 195.76364 C 190.76625 192.24954 189.82968 189.438 187.95505 187.32953 C 186.12034 185.18202 183.36739 184.10854 179.69664 184.10854 z M 239.38912 184.10854 C 236.81201 184.10854 234.44961 184.77211 232.30222 186.09963 C 230.19346 187.42718 228.51464 189.28184 227.26532 191.66363 C 226.016 194.00633 225.39153 196.72011 225.39153 199.80474 C 225.39153 202.88931 226.016 205.62242 227.26532 208.00424 C 228.51464 210.347 230.19346 212.18231 232.30222 213.50984 C 234.44961 214.83739 236.81201 215.50094 239.38912 215.50094 C 241.73142 215.50094 243.78172 215.01313 245.53862 214.03694 C 247.29552 213.02174 248.6424 211.79142 249.57972 210.34673 L 249.81433 210.34673 L 249.81433 213.68554 C 249.81433 216.92636 248.97467 219.44464 247.29562 221.24064 C 245.61656 223.07601 243.21584 223.99344 240.09192 223.99344 C 237.90529 223.99344 236.05065 223.42707 234.52792 222.29484 C 233.04443 221.20119 231.98999 219.83523 231.36532 218.19535 L 226.79713 220.12805 C 227.26546 221.45566 228.04613 222.76329 229.1391 224.05184 C 230.27198 225.34041 231.73652 226.39485 233.53263 227.21443 C 235.36738 228.0739 237.55406 228.50273 240.09192 228.50273 C 242.86461 228.50273 245.32393 227.95667 247.47132 226.86304 C 249.65792 225.80866 251.37623 224.18899 252.62553 222.00235 C 253.91409 219.81559 254.55874 217.0628 254.55874 213.74394 L 254.55874 185.04543 L 249.81433 185.04543 L 249.81433 189.32114 L 249.57972 189.32114 C 248.6424 187.8374 247.29552 186.60701 245.53862 185.63093 C 243.78172 184.61569 241.73142 184.10854 239.38912 184.10854 z M 291.5849 184.10854 C 289.90585 184.10854 288.30481 184.34281 286.7821 184.81134 C 285.29862 185.27985 283.97087 185.94342 282.79939 186.80243 C 281.62858 187.66147 280.65189 188.67681 279.87089 189.84824 L 283.6195 192.65944 C 284.43974 191.37095 285.55216 190.37536 286.9578 189.67254 C 288.40267 188.93067 289.94447 188.55943 291.5849 188.55943 C 293.8886 188.55943 295.8407 189.2235 297.44191 190.55104 C 299.04249 191.87859 299.8428 193.67466 299.8428 195.93934 L 299.8428 197.75473 C 299.4137 197.48139 298.76894 197.20797 297.9101 196.93463 C 297.09054 196.6223 296.11382 196.36855 294.9816 196.17344 C 293.84937 195.9392 292.61969 195.82204 291.2919 195.82204 C 288.98819 195.82204 286.87992 196.21263 284.9667 196.99354 C 283.05349 197.73541 281.53077 198.86744 280.39851 200.39023 C 279.26629 201.87397 278.69939 203.70928 278.69939 205.89584 C 278.69939 207.80906 279.16831 209.52726 280.10499 211.05005 C 281.08152 212.53379 282.40918 213.70503 284.0882 214.56404 C 285.76725 215.42301 287.71947 215.85234 289.94469 215.85234 C 291.46806 215.85234 292.85381 215.59877 294.1031 215.09114 C 295.39168 214.58356 296.5046 213.93936 297.44191 213.15845 C 298.3786 212.33848 299.10112 211.49878 299.6087 210.63974 L 299.8428 210.63974 L 299.8428 214.91544 L 304.58721 214.91544 L 304.58721 195.99774 C 304.58721 192.36649 303.43482 189.47704 301.13109 187.32953 C 298.82738 185.18202 295.6455 184.10854 291.5849 184.10854 z M 274.28002 184.16693 C 273.10854 184.16693 271.91782 184.42055 270.70711 184.92813 C 269.53564 185.39666 268.48183 186.06072 267.54451 186.91974 C 266.64645 187.7397 266.00216 188.71541 265.61233 189.84772 L 265.3772 189.84772 L 265.3772 185.04543 L 260.63331 185.04543 L 260.63331 214.91544 L 265.61233 214.91493 L 265.61233 198.22292 C 265.61233 196.58299 265.96349 195.08024 266.66601 193.71364 C 267.40773 192.34705 268.38393 191.2537 269.594 190.43373 C 270.80473 189.61376 272.13233 189.20332 273.57722 189.20332 C 274.31897 189.20332 275.04138 189.28164 275.74453 189.43793 C 276.48627 189.59412 277.16937 189.82839 277.79402 190.14073 L 277.79402 184.75243 C 277.36494 184.55721 276.89599 184.42083 276.38842 184.34263 C 275.88084 184.22542 275.17808 184.16693 274.28002 184.16693 z M 215.90374 185.04543 L 215.90374 214.91544 L 220.88224 214.91544 L 220.88224 185.04543 L 215.90374 185.04543 z M 305.96956 185.04543 L 318.03445 214.91544 L 323.07135 214.91544 L 335.25304 185.04543 L 330.04096 185.04543 L 320.66995 209.05844 L 320.55316 209.05844 L 311.29895 185.04543 L 305.96956 185.04543 z M 337.9366 185.04543 L 337.9366 214.91544 L 342.9151 214.91544 L 342.9151 185.04543 L 337.9366 185.04543 z M 365.77107 185.04543 L 378.12898 213.04114 L 375.43457 218.89815 C 375.08331 219.67907 374.77058 220.32327 374.49716 220.83085 C 374.263 221.37702 374.04813 221.86511 373.85327 222.29484 C 373.6577 222.72392 373.44355 223.19286 373.20886 223.70044 C 372.81835 224.55925 372.48699 225.2818 372.21358 225.86723 C 371.94017 226.4919 371.68605 227.05877 371.45186 227.56635 L 376.60607 227.56635 C 376.64532 227.48788 376.74279 227.27319 376.89908 226.92195 C 377.05543 226.60994 377.1919 226.31634 377.30887 226.04293 L 377.30835 226.04293 C 377.42544 225.80876 377.62149 225.32131 377.89488 224.57894 C 378.20689 223.87642 378.51925 223.13472 378.83126 222.35375 C 379.18315 221.61201 379.43667 221.06478 379.59297 220.71354 L 395.05507 185.04543 L 389.66677 185.04543 L 380.64717 207.24304 L 380.53038 207.24304 L 371.15938 185.04543 L 365.77107 185.04543 z M -14.060522 185.32552 C -22.482783 185.32552 -29.352095 191.7996 -29.352095 200.59125 C -29.352095 209.38282 -22.482783 215.85751 -14.060522 215.85751 C -5.6382574 215.85751 1.2310514 209.38282 1.2310514 200.59125 C 1.2310514 191.74232 -5.6382574 185.32552 -14.060522 185.32552 z M 19.227886 185.32552 C 10.805624 185.32552 3.9363127 191.7996 3.9363127 200.59125 C 3.9363127 209.38282 10.805624 215.85751 19.227886 215.85751 C 27.650148 215.85751 34.519459 209.38282 34.519459 200.59125 C 34.519459 191.74232 27.650148 185.32552 19.227886 185.32552 z M 51.745798 185.32552 C 44.119313 185.32552 37.129119 192.08618 37.129119 200.64861 C 37.129119 209.21105 44.119313 215.85751 51.745798 215.85751 C 55.386952 215.85751 58.27767 214.24044 59.780449 212.38795 L 60.009376 212.38795 L 60.009376 214.5842 C 60.009376 220.42806 56.889945 223.54748 51.860519 223.54748 C 47.760681 223.54748 45.214415 220.60053 44.17675 218.11111 L 38.338864 220.53681 C 40.013408 224.58518 44.463057 229.55744 51.860519 229.55744 C 59.716666 229.55744 66.362993 224.92913 66.362993 213.65454 L 66.362993 186.24846 L 60.009376 186.24846 L 60.009376 188.73771 L 59.780449 188.73771 C 58.27767 186.94247 55.386952 185.32552 51.745798 185.32552 z M 95.602552 185.32552 C 87.746396 185.32552 81.2148 191.51312 81.2148 200.59125 C 81.2148 209.14731 87.689263 215.85751 96.353411 215.85751 C 103.34365 215.85751 107.39244 211.57963 109.06633 209.09048 L 103.86561 205.62092 C 102.13448 208.16736 99.765541 209.84133 96.353411 209.84133 C 92.94128 209.84133 90.515948 208.2753 88.955929 205.21319 L 109.35365 196.77185 L 108.65912 195.04017 C 107.386 191.62791 103.45805 185.32552 95.602552 185.32552 z M 240.09192 188.61782 C 241.84879 188.61782 243.46902 189.04762 244.95313 189.90663 C 246.43661 190.76564 247.60829 192.03474 248.46712 193.71364 C 249.36519 195.3536 249.81433 197.38389 249.81433 199.80474 C 249.81433 202.14741 249.36519 204.15847 248.46712 205.83745 C 247.60829 207.51637 246.43661 208.80478 244.95313 209.70284 C 243.46902 210.56186 241.84879 210.99114 240.09192 210.99114 C 238.33503 210.99114 236.7142 210.56186 235.23072 209.70284 C 233.74658 208.80478 232.55587 207.53577 231.65781 205.89584 C 230.75975 204.21684 230.31061 202.18649 230.31061 199.80474 C 230.31061 197.42294 230.75975 195.41192 231.65781 193.77203 C 232.55587 192.09305 233.74658 190.82396 235.23072 189.96503 C 236.7142 189.06696 238.33503 188.61782 240.09192 188.61782 z M 95.838197 191.22077 C 98.492502 191.22077 100.74591 192.55101 101.49728 194.46088 L 87.867624 200.1241 C 87.690896 194.22439 92.43234 191.22077 95.838197 191.22077 z M -14.06724 191.34169 C -9.4514645 191.34169 -5.466731 195.09728 -5.466731 200.59125 C -5.466731 206.0279 -9.4514645 209.84133 -14.06724 209.84133 C -18.68237 209.84133 -22.667231 206.0852 -22.667231 200.59125 C -22.667231 195.09728 -18.68237 191.34169 -14.06724 191.34169 z M 19.221168 191.34169 C 23.836943 191.34169 27.821676 195.09728 27.821676 200.59125 C 27.821676 206.0279 23.836943 209.84133 19.221168 209.84133 C 14.606035 209.84133 10.620659 206.0852 10.620659 200.59125 C 10.620659 195.09728 14.606035 191.34169 19.221168 191.34169 z M 52.319406 191.34169 C 56.883715 191.34169 60.467229 195.26929 60.467229 200.64861 C 60.467229 205.96438 56.940972 209.84133 52.319406 209.84133 C 47.697198 209.84133 43.826901 206.02163 43.826901 200.64861 C 43.826901 195.27564 47.754451 191.34169 52.319406 191.34169 z M 292.05361 199.86313 C 293.65419 199.86313 295.11832 200.05819 296.44611 200.44863 C 297.81253 200.83911 298.94537 201.34681 299.8428 201.97153 C 299.8428 203.68956 299.41384 205.27126 298.55502 206.71594 C 297.69555 208.16063 296.54379 209.31207 295.0989 210.17103 C 293.69325 211.03005 292.13157 211.45984 290.41392 211.45984 C 288.5007 211.45984 286.91897 210.9521 285.66899 209.93694 C 284.41967 208.92173 283.7952 207.59416 283.7952 205.95423 C 283.7952 204.23626 284.45902 202.79148 285.78681 201.62013 C 287.11398 200.44873 289.2031 199.86313 292.05361 199.86313 z " /><path
       d="m -105.26502,216.1732 c 3.00216,2.25163 7.505419,0.75057 3.3774,-3.37739 -12.3838,-12.00856 -9.75696,-45.032 -25.14285,-45.032 -15.38595,0 -12.75911,33.02344 -25.14291,45.032 -4.50319,4.50319 0.37525,5.62902 3.3774,3.37739 11.63331,-7.88059 10.88276,-21.76543 21.76551,-21.76543 10.88269,0 10.1322,13.88484 21.76545,21.76543 z"
       fill="#3186ff"
       id="path871"
       style="stroke-width:0.643315"
       mask="none" /><g
       mask="none"
       id="g920"
       transform="matrix(0.64331429,0,0,0.64331429,-162.9698,155.89788)"
       style="fill:none"
       clip-path="url(#clipPath1200)"><g
         filter="url(#filter0_f_6001_463)"
         id="g878"><ellipse
           cx="22.7873"
           cy="26.809799"
           rx="22.7873"
           ry="26.809799"
           transform="matrix(-0.112784,0.99362,-0.99362,-0.112781,66.2473,-15.5344)"
           fill="#ffe432"
           id="ellipse876" /></g><g
         filter="url(#filter1_f_6001_463)"
         id="g882"><ellipse
           cx="96.490997"
           cy="35.1231"
           rx="29.5007"
           ry="30.1492"
           transform="rotate(76.9243,96.491,35.1231)"
           fill="#fc413d"
           id="ellipse880" /></g><g
         filter="url(#filter2_f_6001_463)"
         id="g886"><ellipse
           cx="9.0298796"
           cy="41.6647"
           rx="30.832001"
           ry="39.9417"
           transform="rotate(74.1257,9.02988,41.6647)"
           fill="#00b95c"
           id="ellipse884" /></g><g
         filter="url(#filter3_f_6001_463)"
         id="g890"><ellipse
           cx="9.0298796"
           cy="41.6647"
           rx="30.832001"
           ry="39.9417"
           transform="rotate(74.1257,9.02988,41.6647)"
           fill="#00b95c"
           id="ellipse888" /></g><g
         filter="url(#filter4_f_6001_463)"
         id="g894"><ellipse
           cx="11.2212"
           cy="42.891499"
           rx="30.219999"
           ry="33.269501"
           transform="rotate(45.6065,11.2212,42.8915)"
           fill="#00b95c"
           id="ellipse892" /></g><g
         filter="url(#filter5_f_6001_463)"
         id="g898"><ellipse
           cx="75.754601"
           cy="104.822"
           rx="29.0177"
           ry="27.943001"
           transform="rotate(76.9243,75.7546,104.822)"
           fill="#3186ff"
           id="ellipse896" /></g><g
         filter="url(#filter6_f_6001_463)"
         id="g902"><ellipse
           cx="33.566101"
           cy="35.404301"
           rx="33.566101"
           ry="35.404301"
           transform="matrix(-0.409539,0.912293,-0.912294,-0.409537,101.25,-15.1674)"
           fill="#fbbc04"
           id="ellipse900" /></g><g
         filter="url(#filter7_f_6001_463)"
         id="g906"><path
           d="M 2.56802,149.695 C -15.8116,142.48 15.5987,83.1163 23.4093,63.2203 31.22,43.3244 52.4514,33.0447 70.831,40.26 c 18.3797,7.2153 40.165,46.9562 32.354,66.852 -7.8108,19.896 -82.2373,49.798 -100.61698,42.583 z"
           fill="#3186ff"
           id="path904" /></g><g
         filter="url(#filter8_f_6001_463)"
         id="g910"><path
           d="M 113.934,75.8079 C 109.013,81.5509 96.1724,78.6224 85.253,69.2667 74.3335,59.911 69.4704,47.6711 74.391,41.928 c 4.9206,-5.743 17.7615,-2.8144 28.681,6.5412 10.919,9.3557 15.783,21.5956 10.862,27.3387 z"
           fill="#749bff"
           id="path908" /></g><g
         filter="url(#filter9_f_6001_463)"
         id="g914"><ellipse
           cx="92.611"
           cy="23.7962"
           rx="44.2411"
           ry="27.5016"
           transform="rotate(34.0763,92.611,23.7962)"
           fill="#fc413d"
           id="ellipse912" /></g><g
         filter="url(#filter10_f_6001_463)"
         id="g918"><ellipse
           cx="23.4949"
           cy="29.588699"
           rx="23.7071"
           ry="13.7869"
           transform="rotate(112.516,23.4949,29.5887)"
           fill="#ffee48"
           id="ellipse916" /></g></g></g></svg>
